<svg xmlns="http://www.w3.org/2000/svg" viewBox="0 0 211.48079 55.37942">
  <defs>
    <style>
      .cls-1 {
        fill: #F1F6F9;
      }
    </style>
  </defs>
  <title>Ресурс 1</title>
  <g id="Слой_2" data-name="Слой 2">
    <g>
      <path class="cls-1" d="M138.2301,29.498a1.8914,1.8914,0,1,0-1.8904,1.8923A1.89175,1.89175,0,0,0,138.2301,29.498Z"/>
      <path class="cls-1" d="M150.9791,29.498a1.89045,1.89045,0,1,0-1.8905,1.8923A1.89068,1.89068,0,0,0,150.9791,29.498Z"/>
      <path class="cls-1" d="M132.827,35.74852l-.6109.164a.909.909,0,0,0-.6855.9963,11.63087,11.63087,0,0,0,21.9051.2012,1.09032,1.09032,0,0,0-.7953-1.2423l-.596-.1619a1.10641,1.10641,0,0,0-1.2088.73,8.96217,8.96217,0,0,1-16.6955-.1583A1.10034,1.10034,0,0,0,132.827,35.74852Z"/>
      <path class="cls-1" d="M106.6344,10.43712l6.2023-5.4125a2.46131,2.46131,0,0,0-.2739-3.58171l-1.0095-.827a2.77,2.77,0,0,0-3.764.26091l-10.784,10.4765-.0074,9.661,9.3609-10.2196A3.086,3.086,0,0,1,106.6344,10.43712Z"/>
      <polygon class="cls-1" points="19.364 49.03 17.694 55.379 43.329 55.379 47.921 49.09 19.364 49.03"/>
      <path class="cls-1" d="M55.5383,19.06232a2.61241,2.61241,0,0,0-2.669-2.5385H51.5358a2.61359,2.61359,0,0,0-2.6691,2.5385v27.4293a4.99405,4.99405,0,0,1-.255,1.6538l6.9266-9.4913Z"/>
      <path class="cls-1" d="M139.82821,48.73391A13.21639,13.21639,0,0,1,128.9753,35.99262a12.40469,12.40469,0,0,1,.691-4.0734l-3.8945-.8735s-2.7584-.2569-3.1048,1.315a18.40028,18.40028,0,0,0-.3614,3.6319c0,3.9298,2.3953,8.3757,3.4401,10.1264l13.8534,9.2604h12.61111l-7.02161-4.6953A16.49919,16.49919,0,0,0,139.82821,48.73391Z"/>
      <path class="cls-1" d="M142.6611,22.97172a14.02835,14.02835,0,0,1,9.091,3.3004l2.585-2.4883s1.44911-2.2406-.2401-3.8032a20.94849,20.94849,0,0,0-11.4359-3.3563,20.6759,20.6759,0,0,0-16.4274,7.9492c-1.6186,2.03939.9126,3.4736.9126,3.4736l4.0157.9014A13.86325,13.86325,0,0,1,142.6611,22.97172Z"/>
      <path class="cls-1" d="M166.5663,46.49162a2.231,2.231,0,0,1-1.5254,2.1699l7.8786,5.2652a2.59808,2.59808,0,0,0,.30171-1.0822c.00929-.4338.01489-15.2781.01489-20.3255l-6.6698-4.958Z"/>
      <path class="cls-1" d="M158.973,48.54032l-.2423-.164.0821-.1117a1.53,1.53,0,0,1,.2906-1.3782s3.9149-5.8706,3.9149-10.8938a18.51892,18.51892,0,0,0-2.8104-9.8006,2.5079,2.5079,0,0,0-3.6022-.0149l-2.6169,2.5181a12.51769,12.51769,0,0,1,2.3579,7.2974,12.90348,12.90348,0,0,1-6.5318,11.0967,1.801,1.801,0,0,0,.1417,2.8517l8.1373,5.4384h11.1155l-9.7057-6.4872A1.26874,1.26874,0,0,1,158.973,48.54032Z"/>
      <path class="cls-1" d="M93.582,2.784A2.61525,2.61525,0,0,0,90.9129.24342H89.5775A2.61482,2.61482,0,0,0,86.9104,2.784v43.5623l6.6753,4.3042v-1.6204s-.0037-1.1416-.0037-2.5385V27.35791a4.61871,4.61871,0,0,1,.0298-.49529l.0093-13.8014a2.766,2.766,0,0,1-.0391-.4917Z"/>
      <path class="cls-1" d="M203.92469,18.03052c0-1.3969-.9722-1.8662-2.1567-1.0431l-14.945,10.3688a3.872,3.872,0,0,1-4.2464-.084l-13.9222-10.5381c-1.1493-.8679-2.0881-.4377-2.0881.9575v5.7868l8.1915,6.0848a2.57774,2.57774,0,0,1,.568.3315l7.0757,5.3566a3.86229,3.86229,0,0,0,4.24471.0839l8.45209-5.8634a2.86578,2.86578,0,0,1,.3705-.2141l8.45589-5.8911Z"/>
      <path class="cls-1" d="M32.1097,7.95812,37.9543,45.875l6.7684-.0019L37.7289,2.90682A3.25143,3.25143,0,0,0,34.6055.40742H30.7426L31.983,7.52591A2.24466,2.24466,0,0,1,32.1097,7.95812Z"/>
      <path class="cls-1" d="M123.59821,48.61662l-.36321-.2403.0446-.06141a6.68321,6.68321,0,0,1-1.08939-1.57569L106.491,15.54782l-4.7716,5.2094,16.2672,32.3295a16.23935,16.23935,0,0,0,1.2421,2.24619c.054-.02039.095-.02039.095,0,0,.02611,1.95951.04651,3.4271.04651h10.9628l-9.4803-6.3361A2.96888,2.96888,0,0,1,123.59821,48.61662Z"/>
      <path class="cls-1" d="M197.2755,53.70872c-.0055.6687.5569,1.2033,1.38009,1.4733h12.8252v-3.6132a2.61517,2.61517,0,0,0-2.67058-2.5387h-2.21832a2.61311,2.61311,0,0,1-2.6672-2.5385V27.35622l-6.66959,4.645C197.2626,37.04862,197.2849,53.26552,197.2755,53.70872Z"/>
      <path class="cls-1" d="M84.86721,49.03012c-1.32971.0391-2.11391-1.1416-2.11391-2.5385V23.35542L76.0799,32.707v18.7743c0,1.3949.0094,1.81959.0187,1.81959.0111,0,.0149-.05389.0185.32031.0132,1.0636,1.2014,1.7582,2.669,1.7582H90.9167a2.70875,2.70875,0,0,0,2.2183-1.1342l-8.1131-5.228C84.9715,49.02272,84.9195,49.02822,84.86721,49.03012Z"/>
      <path class="cls-1" d="M27.3268.40742H23.12121A3.47888,3.47888,0,0,0,19.86,2.88072L9.8563,46.553a3.48053,3.48053,0,0,1-3.263,2.4771H2.6671A2.61328,2.61328,0,0,0,0,51.56882v3.7137H14.2334l3.3319-12.66861L25.18121,7.93012c.29619-1.2405,1.57189-.9498,3.08619-1.1417Z"/>
      <path class="cls-1" d="M78.94821,16.83652H77.6686a5.69514,5.69514,0,0,0-4.1552,2.1123l-16.4907,23.421a2.77724,2.77724,0,0,1-.46749.5326l-9.10961,12.477h4.7457c1.4676,0,2.669-.0036,2.669-.0093,0-.0075.2794-.026.5624-.0837.4806-.095,1.1548-.8774,1.9744-2.0377l17.2003-24.4324a2.26418,2.26418,0,0,1,.6407-.65741l6.6714-9.35349A3.9342,3.9342,0,0,0,78.94821,16.83652Z"/>
    </g>
  </g>
</svg>
